<svg width="17" height="6" viewBox="0 0 17 6" fill="none" xmlns="http://www.w3.org/2000/svg">
<path d="M0.125 3C0.125 2.41984 0.355468 1.86344 0.765704 1.4532C1.17594 1.04297 1.73234 0.8125 2.3125 0.8125C2.89266 0.8125 3.44906 1.04297 3.8593 1.4532C4.26953 1.86344 4.5 2.41984 4.5 3C4.5 3.58016 4.26953 4.13656 3.8593 4.5468C3.44906 4.95703 2.89266 5.1875 2.3125 5.1875C1.73234 5.1875 1.17594 4.95703 0.765704 4.5468C0.355468 4.13656 0.125 3.58016 0.125 3ZM6.375 3C6.375 2.41984 6.60547 1.86344 7.0157 1.4532C7.42594 1.04297 7.98234 0.8125 8.5625 0.8125C9.14266 0.8125 9.69906 1.04297 10.1093 1.4532C10.5195 1.86344 10.75 2.41984 10.75 3C10.75 3.58016 10.5195 4.13656 10.1093 4.5468C9.69906 4.95703 9.14266 5.1875 8.5625 5.1875C7.98234 5.1875 7.42594 4.95703 7.0157 4.5468C6.60547 4.13656 6.375 3.58016 6.375 3ZM14.8125 0.8125C15.3927 0.8125 15.9491 1.04297 16.3593 1.4532C16.7695 1.86344 17 2.41984 17 3C17 3.58016 16.7695 4.13656 16.3593 4.5468C15.9491 4.95703 15.3927 5.1875 14.8125 5.1875C14.2323 5.1875 13.6759 4.95703 13.2657 4.5468C12.8555 4.13656 12.625 3.58016 12.625 3C12.625 2.41984 12.8555 1.86344 13.2657 1.4532C13.6759 1.04297 14.2323 0.8125 14.8125 0.8125Z" fill="#65676B"/>
</svg>
