<svg width="40" height="40" viewBox="0 0 40 40" fill="none" xmlns="http://www.w3.org/2000/svg">
<path d="M12.5 6.875V8.75H9.6875C8.13477 8.75 6.875 10.0098 6.875 11.5625V14.375H33.125V11.5625C33.125 10.0098 31.8652 8.75 30.3125 8.75H27.5V6.875C27.5 5.83789 26.6621 5 25.625 5C24.5879 5 23.75 5.83789 23.75 6.875V8.75H16.25V6.875C16.25 5.83789 15.4121 5 14.375 5C13.3379 5 12.5 5.83789 12.5 6.875Z" fill="#DC0000"/>
<path d="M33.125 16.25H6.875V32.1875C6.875 33.7402 8.13477 35 9.6875 35H30.3125C31.8652 35 33.125 33.7402 33.125 32.1875V16.25Z" fill="#C2C2C2"/>
<path d="M19.8098 18.5854C19.8697 18.4011 20.1303 18.4011 20.1902 18.5854L21.5267 22.6987C21.5535 22.7811 21.6303 22.8369 21.7169 22.8369H26.0419C26.2356 22.8369 26.3162 23.0848 26.1594 23.1987L22.6605 25.7408C22.5904 25.7918 22.561 25.882 22.5878 25.9644L23.9243 30.0777C23.9842 30.262 23.7733 30.4152 23.6165 30.3013L20.1176 27.7592C20.0475 27.7082 19.9525 27.7082 19.8824 27.7592L16.3835 30.3013C16.2267 30.4152 16.0158 30.262 16.0757 30.0777L17.4122 25.9644C17.439 25.882 17.4096 25.7918 17.3395 25.7408L13.8406 23.1987C13.6838 23.0848 13.7644 22.8369 13.9581 22.8369H18.2831C18.3697 22.8369 18.4465 22.7811 18.4733 22.6987L19.8098 18.5854Z" fill="#FFD02B"/>
</svg>
