<svg width="21" height="18" viewBox="0 0 21 18" fill="none" xmlns="http://www.w3.org/2000/svg">
<path d="M4.67308 0C5.36162 0 6.02196 0.296316 6.50883 0.823762C6.99571 1.35121 7.26923 2.06658 7.26923 2.8125C7.26923 3.55842 6.99571 4.27379 6.50883 4.80124C6.02196 5.32868 5.36162 5.625 4.67308 5.625C3.98453 5.625 3.32419 5.32868 2.83732 4.80124C2.35045 4.27379 2.07692 3.55842 2.07692 2.8125C2.07692 2.06658 2.35045 1.35121 2.83732 0.823762C3.32419 0.296316 3.98453 0 4.67308 0ZM16.6154 0C17.3039 0 17.9643 0.296316 18.4511 0.823762C18.938 1.35121 19.2115 2.06658 19.2115 2.8125C19.2115 3.55842 18.938 4.27379 18.4511 4.80124C17.9643 5.32868 17.3039 5.625 16.6154 5.625C15.9268 5.625 15.2665 5.32868 14.7796 4.80124C14.2928 4.27379 14.0192 3.55842 14.0192 2.8125C14.0192 2.06658 14.2928 1.35121 14.7796 0.823762C15.2665 0.296316 15.9268 0 16.6154 0ZM0 10.5012C0 8.43047 1.5512 6.75 3.46262 6.75H4.84832C5.3643 6.75 5.85433 6.87305 6.29567 7.09102C6.25349 7.34414 6.23401 7.60781 6.23401 7.875C6.23401 9.21797 6.77921 10.4238 7.63918 11.25C7.63269 11.25 7.6262 11.25 7.61647 11.25H0.691226C0.311538 11.25 0 10.9125 0 10.5012ZM13.1528 11.25C13.1463 11.25 13.1398 11.25 13.13 11.25C13.9933 10.4238 14.5352 9.21797 14.5352 7.875C14.5352 7.60781 14.5125 7.34766 14.4736 7.09102C14.9149 6.86953 15.4049 6.75 15.9209 6.75H17.3066C19.218 6.75 20.7692 8.43047 20.7692 10.5012C20.7692 10.916 20.4577 11.25 20.078 11.25H13.1528ZM7.26923 7.875C7.26923 6.97989 7.59746 6.12145 8.18171 5.48851C8.76595 4.85558 9.55836 4.5 10.3846 4.5C11.2109 4.5 12.0033 4.85558 12.5875 5.48851C13.1718 6.12145 13.5 6.97989 13.5 7.875C13.5 8.77011 13.1718 9.62855 12.5875 10.2615C12.0033 10.8944 11.2109 11.25 10.3846 11.25C9.55836 11.25 8.76595 10.8944 8.18171 10.2615C7.59746 9.62855 7.26923 8.77011 7.26923 7.875ZM4.15385 17.0613C4.15385 14.4738 6.09123 12.375 8.47969 12.375H12.2895C14.678 12.375 16.6154 14.4738 16.6154 17.0613C16.6154 17.5781 16.2292 18 15.7489 18H5.02031C4.54327 18 4.15385 17.5816 4.15385 17.0613Z" fill="#65676B"/>
</svg>
