<svg width="21" height="18" viewBox="0 0 21 18" fill="none" xmlns="http://www.w3.org/2000/svg">
<path d="M20.243 8.98242C20.243 9.61523 19.7156 10.1109 19.118 10.1109H17.993L18.0176 15.743C18.0176 15.8379 18.0105 15.9328 18 16.0277V16.5938C18 17.3707 17.3707 18 16.5938 18H16.0312C15.9926 18 15.9539 18 15.9152 17.9965C15.866 18 15.8168 18 15.7676 18H14.625H13.7812C13.0043 18 12.375 17.3707 12.375 16.5938V15.75V13.5C12.375 12.8777 11.8723 12.375 11.25 12.375H9C8.37773 12.375 7.875 12.8777 7.875 13.5V15.75V16.5938C7.875 17.3707 7.2457 18 6.46875 18H5.625H4.50352C4.45078 18 4.39805 17.9965 4.34531 17.993C4.30313 17.9965 4.26094 18 4.21875 18H3.65625C2.8793 18 2.25 17.3707 2.25 16.5938V12.6562C2.25 12.6246 2.25 12.5895 2.25352 12.5578V10.1109H1.125C0.492188 10.1109 0 9.61875 0 8.98242C0 8.66602 0.105469 8.38477 0.351562 8.13867L9.36562 0.28125C9.61172 0.0351562 9.89297 0 10.1391 0C10.3852 0 10.6664 0.0703125 10.8773 0.246094L19.8562 8.13867C20.1375 8.38477 20.2781 8.66602 20.243 8.98242Z" fill="#65676B"/>
</svg>
