<svg width="40" height="40" viewBox="0 0 40 40" fill="none" xmlns="http://www.w3.org/2000/svg">
<path d="M9.39453 9.39453L7.40234 7.40234C6.51758 6.51758 5 7.14453 5 8.39258V14.8438C5 15.623 5.62695 16.25 6.40625 16.25H12.8574C14.1113 16.25 14.7383 14.7324 13.8535 13.8477L12.0488 12.043C14.082 10.0098 16.8945 8.75 20 8.75C26.2109 8.75 31.25 13.7891 31.25 20C31.25 26.2109 26.2109 31.25 20 31.25C17.6094 31.25 15.3945 30.5059 13.5723 29.2344C12.7227 28.6426 11.5566 28.8477 10.959 29.6973C10.3613 30.5469 10.5723 31.7129 11.4219 32.3105C13.8594 34.0039 16.8184 35 20 35C28.2852 35 35 28.2852 35 20C35 11.7148 28.2852 5 20 5C15.8574 5 12.1074 6.68164 9.39453 9.39453ZM20 12.5C19.2207 12.5 18.5938 13.127 18.5938 13.9062V20C18.5938 20.375 18.7402 20.7324 19.0039 20.9961L23.2227 25.2148C23.7734 25.7656 24.6641 25.7656 25.209 25.2148C25.7539 24.6641 25.7598 23.7734 25.209 23.2285L21.4004 19.4199V13.9062C21.4004 13.127 20.7734 12.5 19.9941 12.5H20Z" fill="#0088FF"/>
</svg>
