<svg width="24" height="18" viewBox="0 0 24 18" fill="none" xmlns="http://www.w3.org/2000/svg">
<path d="M8.06325 12.375C12.1027 12.375 15.3758 9.60469 15.3758 6.1875C15.3758 2.77031 12.1027 0 8.06325 0C4.0238 0 0.750751 2.77031 0.750751 6.1875C0.750751 7.54453 1.26755 8.79961 2.14294 9.82266C2.01989 10.1531 1.83708 10.4449 1.64372 10.691C1.47497 10.909 1.3027 11.0777 1.17614 11.1937C1.11286 11.25 1.06013 11.2957 1.02497 11.3238C1.00739 11.3379 0.993329 11.3484 0.986298 11.352L0.979267 11.359C0.785907 11.5031 0.701532 11.7562 0.778876 11.9848C0.85622 12.2133 1.07067 12.375 1.31325 12.375C2.07966 12.375 2.8531 12.1781 3.49645 11.9355C3.81989 11.8125 4.12224 11.6754 4.38591 11.5348C5.4652 12.0691 6.72028 12.375 8.06325 12.375ZM16.5008 6.1875C16.5008 10.1355 13.0168 13.1098 8.88942 13.4648C9.74372 16.0805 12.5773 18 15.9383 18C17.2812 18 18.5363 17.6941 19.6191 17.1598C19.8828 17.3004 20.1816 17.4375 20.505 17.5605C21.1484 17.8031 21.9218 18 22.6882 18C22.9308 18 23.1488 17.8418 23.2226 17.6098C23.2965 17.3777 23.2156 17.1246 23.0187 16.9805L23.0117 16.9734C23.0047 16.9664 22.9906 16.9594 22.973 16.9453C22.9379 16.9172 22.8851 16.875 22.8218 16.8152C22.6953 16.6992 22.523 16.5305 22.3543 16.3125C22.1609 16.0664 21.9781 15.7711 21.855 15.4441C22.7304 14.4246 23.2472 13.1695 23.2472 11.809C23.2472 8.54648 20.2625 5.87109 16.4761 5.63906C16.4902 5.81836 16.4972 6.00117 16.4972 6.18398L16.5008 6.1875Z" fill="#65676B"/>
</svg>
