<svg width="40" height="40" viewBox="0 0 40 40" fill="none" xmlns="http://www.w3.org/2000/svg">
<rect x="4" y="4" width="32" height="32" rx="16" fill="#C2C2C2"/>
<path d="M17.3214 16.7857C17.3214 15.6038 18.2824 14.6429 19.4643 14.6429H20.5357C21.7177 14.6429 22.6786 15.6038 22.6786 16.7857V16.9062C22.6786 17.6362 22.3069 18.3158 21.6942 18.7076L20.2813 19.615C19.4375 20.1574 18.9286 21.0915 18.9286 22.0926V22.1429C18.9286 22.7355 19.4074 23.2143 20 23.2143C20.5927 23.2143 21.0714 22.7355 21.0714 22.1429V22.096C21.0714 21.8214 21.2121 21.567 21.4398 21.4196L22.8527 20.5123C24.0781 19.7221 24.8214 18.3661 24.8214 16.9062V16.7857C24.8214 14.4185 22.9029 12.5 20.5357 12.5H19.4643C17.0971 12.5 15.1786 14.4185 15.1786 16.7857C15.1786 17.3783 15.6574 17.8571 16.25 17.8571C16.8427 17.8571 17.3214 17.3783 17.3214 16.7857ZM20 27.5C20.3552 27.5 20.6959 27.3589 20.947 27.1077C21.1982 26.8566 21.3393 26.5159 21.3393 26.1607C21.3393 25.8055 21.1982 25.4649 20.947 25.2137C20.6959 24.9625 20.3552 24.8214 20 24.8214C19.6448 24.8214 19.3042 24.9625 19.053 25.2137C18.8018 25.4649 18.6607 25.8055 18.6607 26.1607C18.6607 26.5159 18.8018 26.8566 19.053 27.1077C19.3042 27.3589 19.6448 27.5 20 27.5Z" fill="#3D3D3D"/>
</svg>
