<svg width="16" height="18" viewBox="0 0 16 18" fill="none" xmlns="http://www.w3.org/2000/svg">
<path d="M7.9992 0C7.37694 0 6.8742 0.502734 6.8742 1.125V1.8C4.3078 2.32031 2.3742 4.59141 2.3742 7.3125V7.97344C2.3742 9.62578 1.766 11.2219 0.669127 12.4594L0.408971 12.7512C0.113658 13.0816 0.0433456 13.5563 0.222642 13.9605C0.401939 14.3648 0.806236 14.625 1.2492 14.625H14.7492C15.1922 14.625 15.593 14.3648 15.7758 13.9605C15.9586 13.5563 15.8848 13.0816 15.5894 12.7512L15.3293 12.4594C14.2324 11.2219 13.6242 9.6293 13.6242 7.97344V7.3125C13.6242 4.59141 11.6906 2.32031 9.1242 1.8V1.125C9.1242 0.502734 8.62147 0 7.9992 0ZM9.59178 17.3426C10.0137 16.9207 10.2492 16.3477 10.2492 15.75H7.9992H5.7492C5.7492 16.3477 5.98475 16.9207 6.40663 17.3426C6.8285 17.7645 7.40155 18 7.9992 18C8.59686 18 9.16991 17.7645 9.59178 17.3426Z" fill="#65676B"/>
</svg>
