<svg width="16" height="16" viewBox="0 0 16 16" fill="none" xmlns="http://www.w3.org/2000/svg">
<path d="M12.8915 6.59286C12.8915 7.93739 12.4551 9.17939 11.7198 10.1871L15.4283 13.8984C15.7944 14.2646 15.7944 14.8592 15.4283 15.2254C15.0621 15.5915 14.4675 15.5915 14.1013 15.2254L10.3929 11.514C9.3852 12.2522 8.1432 12.6857 6.79867 12.6857C3.43295 12.6857 0.705811 9.95858 0.705811 6.59286C0.705811 3.22714 3.43295 0.5 6.79867 0.5C10.1644 0.5 12.8915 3.22714 12.8915 6.59286ZM6.79867 10.811C7.3526 10.811 7.90111 10.7019 8.41288 10.4899C8.92464 10.2779 9.38965 9.96722 9.78134 9.57553C10.173 9.18384 10.4837 8.71883 10.6957 8.20707C10.9077 7.6953 11.0168 7.14679 11.0168 6.59286C11.0168 6.03892 10.9077 5.49042 10.6957 4.97865C10.4837 4.46688 10.173 4.00188 9.78134 3.61019C9.38965 3.2185 8.92464 2.90779 8.41288 2.69581C7.90111 2.48383 7.3526 2.37473 6.79867 2.37473C6.24474 2.37473 5.69623 2.48383 5.18446 2.69581C4.67269 2.90779 4.20769 3.2185 3.816 3.61019C3.42431 4.00188 3.1136 4.46688 2.90162 4.97865C2.68964 5.49042 2.58054 6.03892 2.58054 6.59286C2.58054 7.14679 2.68964 7.6953 2.90162 8.20707C3.1136 8.71883 3.42431 9.18384 3.816 9.57553C4.20769 9.96722 4.67269 10.2779 5.18446 10.4899C5.69623 10.7019 6.24474 10.811 6.79867 10.811Z" fill="black"/>
</svg>
