<svg width="40" height="40" viewBox="0 0 40 40" fill="none" xmlns="http://www.w3.org/2000/svg">
<path d="M34.9168 14.7636C35.1158 15.2735 34.9479 15.842 34.519 16.2053L31.8272 18.5144C31.8955 19.0008 31.9328 19.4989 31.9328 20.0029C31.9328 20.5069 31.8955 21.0051 31.8272 21.4915L34.519 23.8005C34.9479 24.1639 35.1158 24.7324 34.9168 25.2422C34.6433 25.9396 34.3138 26.6077 33.9346 27.2524L33.6424 27.7271C33.2321 28.3718 32.7721 28.9812 32.2685 29.5556C31.9018 29.9775 31.2925 30.1182 30.7455 29.9541L27.2828 28.9168C26.4498 29.5204 25.5297 30.0244 24.5475 30.4054L23.7704 33.7517C23.6461 34.285 23.2109 34.707 22.639 34.7949C21.7811 34.9297 20.8983 35 19.9969 35C19.0955 35 18.2127 34.9297 17.3548 34.7949C16.7829 34.707 16.3477 34.285 16.2234 33.7517L15.4463 30.4054C14.4641 30.0244 13.544 29.5204 12.711 28.9168L9.25453 29.96C8.70747 30.124 8.09824 29.9775 7.73145 29.5614C7.22791 28.9871 6.76787 28.3776 6.35758 27.733L6.06539 27.2583C5.68618 26.6136 5.3567 25.9455 5.08316 25.2481C4.88423 24.7382 5.05208 24.1698 5.48103 23.8064L8.17284 21.4974C8.10445 21.0051 8.06715 20.5069 8.06715 20.0029C8.06715 19.4989 8.10445 19.0008 8.17284 18.5144L5.48103 16.2053C5.05208 15.842 4.88423 15.2735 5.08316 14.7636C5.3567 14.0662 5.68618 13.3981 6.06539 12.7535L6.35758 12.2788C6.76787 11.6341 7.22791 11.0246 7.73145 10.4503C8.09824 10.0283 8.70747 9.88767 9.25453 10.0518L12.7172 11.0891C13.5502 10.4854 14.4703 9.98144 15.4525 9.60051L16.2296 6.25415C16.3539 5.72084 16.7891 5.29889 17.361 5.21098C18.2189 5.07033 19.1017 5 20.0031 5C20.9045 5 21.7873 5.07033 22.6452 5.20512C23.2171 5.29303 23.6523 5.71498 23.7766 6.24829L24.5537 9.59465C25.5359 9.97558 26.456 10.4796 27.289 11.0832L30.7517 10.0459C31.2987 9.88181 31.908 10.0283 32.2748 10.4444C32.7783 11.0188 33.2383 11.6282 33.6486 12.2729L33.9408 12.7476C34.32 13.3923 34.6495 14.0604 34.9231 14.7578L34.9168 14.7636ZM20.0031 24.6913C21.3221 24.6913 22.5871 24.1974 23.5198 23.3181C24.4525 22.4389 24.9764 21.2464 24.9764 20.0029C24.9764 18.7595 24.4525 17.567 23.5198 16.6877C22.5871 15.8085 21.3221 15.3145 20.0031 15.3145C18.6841 15.3145 17.4191 15.8085 16.4864 16.6877C15.5538 17.567 15.0298 18.7595 15.0298 20.0029C15.0298 21.2464 15.5538 22.4389 16.4864 23.3181C17.4191 24.1974 18.6841 24.6913 20.0031 24.6913Z" fill="#C2C2C2"/>
</svg>
