<svg width="18" height="18" viewBox="0 0 18 18" fill="none" xmlns="http://www.w3.org/2000/svg">
<path d="M17.9501 5.85818C18.0695 6.16409 17.9688 6.50518 17.7114 6.72319L16.0963 8.10862C16.1373 8.40047 16.1597 8.69936 16.1597 9.00176C16.1597 9.30416 16.1373 9.60305 16.0963 9.8949L17.7114 11.2803C17.9688 11.4983 18.0695 11.8394 17.9501 12.1453C17.786 12.5638 17.5883 12.9646 17.3608 13.3514L17.1855 13.6363C16.9393 14.0231 16.6633 14.3887 16.3611 14.7333C16.1411 14.9865 15.7755 15.0709 15.4473 14.9725L13.3697 14.3501C12.8699 14.7122 12.3178 15.0147 11.7285 15.2432L11.2622 17.251C11.1876 17.571 10.9265 17.8242 10.5834 17.8769C10.0686 17.9578 9.53898 18 8.99813 18C8.45729 18 7.92763 17.9578 7.41289 17.8769C7.06973 17.8242 6.80863 17.571 6.73403 17.251L6.26778 15.2432C5.67845 15.0147 5.12641 14.7122 4.62659 14.3501L2.55272 14.976C2.22448 15.0744 1.85894 14.9865 1.63887 14.7369C1.33674 14.3923 1.06072 14.0266 0.814545 13.6398L0.639236 13.355C0.411707 12.9682 0.214018 12.5673 0.0498982 12.1489C-0.0694614 11.8429 0.0312482 11.5019 0.288617 11.2838L1.9037 9.89842C1.86267 9.60305 1.84029 9.30416 1.84029 9.00176C1.84029 8.69936 1.86267 8.40047 1.9037 8.10862L0.288617 6.72319C0.0312482 6.50518 -0.0694614 6.16409 0.0498982 5.85818C0.214018 5.43973 0.411707 5.03888 0.639236 4.65208L0.814545 4.36726C1.06072 3.98046 1.33674 3.61477 1.63887 3.27017C1.85894 3.017 2.22448 2.9326 2.55272 3.03106L4.63032 3.65345C5.13014 3.29127 5.68218 2.98887 6.27151 2.7603L6.73776 0.752491C6.81236 0.432506 7.07346 0.179332 7.41662 0.126587C7.93136 0.0421957 8.46102 0 9.00186 0C9.54271 0 10.0724 0.0421957 10.5871 0.123071C10.9303 0.175816 11.1914 0.42899 11.266 0.748974L11.7322 2.75679C12.3216 2.98535 12.8736 3.28775 13.3734 3.64993L15.451 3.02754C15.7792 2.92909 16.1448 3.017 16.3649 3.26665C16.667 3.61125 16.943 3.97695 17.1892 4.36374L17.3645 4.64856C17.592 5.03536 17.7897 5.43622 17.9538 5.85466L17.9501 5.85818ZM9.00186 11.8148C9.79327 11.8148 10.5523 11.5184 11.1119 10.9909C11.6715 10.4633 11.9859 9.74783 11.9859 9.00176C11.9859 8.25569 11.6715 7.54018 11.1119 7.01263C10.5523 6.48508 9.79327 6.18871 9.00186 6.18871C8.21046 6.18871 7.45147 6.48508 6.89187 7.01263C6.33226 7.54018 6.01788 8.25569 6.01788 9.00176C6.01788 9.74783 6.33226 10.4633 6.89187 10.9909C7.45147 11.5184 8.21046 11.8148 9.00186 11.8148Z" fill="#65676B"/>
</svg>
